<svg width="22" height="22" viewBox="0 0 22 22" fill="none" xmlns="http://www.w3.org/2000/svg">
<path fill-rule="evenodd" clip-rule="evenodd" d="M0.572 6.4053C0 7.447 0 8.7065 0 11.2233V12.8975C0 17.1875 -1.19209e-07 19.3336 1.2892 20.6668C2.5784 22 4.6519 22 8.8 22H13.2C17.3481 22 19.4227 22 20.7108 20.6668C21.9989 19.3336 22 17.1886 22 12.8975V11.2244C22 8.7065 22 7.4481 21.428 6.4053C20.8582 5.3614 19.8143 4.7146 17.7276 3.4188L15.5276 2.0537C13.3221 0.6842 12.2188 0 11 0C9.7812 0 8.679 0.6842 6.4724 2.0537L4.2724 3.4188C2.1857 4.7146 1.1429 5.3614 0.572 6.4053ZM10.175 17.6C10.175 17.8188 10.2619 18.0286 10.4166 18.1834C10.5714 18.3381 10.7812 18.425 11 18.425C11.2188 18.425 11.4286 18.3381 11.5834 18.1834C11.7381 18.0286 11.825 17.8188 11.825 17.6V14.3C11.825 14.0812 11.7381 13.8714 11.5834 13.7166C11.4286 13.5619 11.2188 13.475 11 13.475C10.7812 13.475 10.5714 13.5619 10.4166 13.7166C10.2619 13.8714 10.175 14.0812 10.175 14.3V17.6Z" fill="#878787"/>
</svg>
