<svg width="22" height="22" viewBox="0 0 22 22" fill="none" xmlns="http://www.w3.org/2000/svg">
<path d="M4.4 2.09524V9.42857L7.15 7.85714L9.9 9.42857V2.09524H4.4ZM16.5 22C14.9783 22 13.6814 21.4891 12.6093 20.4673C11.5372 19.4456 11.0007 18.2104 11 16.7619C10.9993 15.3134 11.5357 14.0783 12.6093 13.0565C13.6829 12.0347 14.9798 11.5238 16.5 11.5238C18.0202 11.5238 19.3175 12.0347 20.3918 13.0565C21.4661 14.0783 22.0022 15.3134 22 16.7619C21.9978 18.2104 21.4614 19.4459 20.3907 20.4684C19.32 21.4909 18.0231 22.0014 16.5 22ZM15.125 19.381L19.525 16.7619L15.125 14.1429V19.381ZM8.8 16.7546C8.8 17.5103 8.92393 18.2418 9.1718 18.9493C9.41966 19.6568 9.75406 20.3245 10.175 20.9524H2.2C1.595 20.9524 1.07727 20.7474 0.6468 20.3374C0.216333 19.9275 0.000733333 19.434 0 18.8571V2.09524C0 1.51905 0.2156 1.02597 0.6468 0.616C1.078 0.206032 1.59573 0.000698413 2.2 0H15.4C16.005 0 16.5231 0.205333 16.9543 0.616C17.3855 1.02667 17.6007 1.51975 17.6 2.09524V9.48095C17.4159 9.46349 17.2315 9.45022 17.0467 9.44114C16.8619 9.43206 16.6771 9.42787 16.4923 9.42857C14.3524 9.42857 12.5356 10.1403 11.0418 11.5636C9.548 12.987 8.80073 14.7173 8.8 16.7546Z" fill="#878787"/>
</svg>
