<svg width="22" height="22" viewBox="0 0 22 22" fill="none" xmlns="http://www.w3.org/2000/svg">
<path d="M13.2 14.3C13.5117 14.3 13.7823 14.1856 14.0118 13.9568C14.2413 13.728 14.3557 13.4574 14.355 13.145C14.3543 12.8326 14.2399 12.5624 14.0118 12.3343C13.7837 12.1062 13.5131 11.9915 13.2 11.99C12.8869 11.9885 12.6166 12.1033 12.3893 12.3343C12.162 12.5653 12.0472 12.8355 12.045 13.145C12.0428 13.4545 12.1576 13.7251 12.3893 13.9568C12.621 14.1885 12.8913 14.3029 13.2 14.3ZM13.2 10.78C13.4017 10.78 13.5898 10.7067 13.7643 10.56C13.9388 10.4133 14.0441 10.2208 14.08 9.98249C14.1167 9.76249 14.1944 9.56083 14.3132 9.37749C14.432 9.19416 14.6476 8.94666 14.96 8.635C15.51 8.085 15.8767 7.64023 16.06 7.3007C16.2433 6.96116 16.335 6.5626 16.335 6.105C16.335 5.28 16.0461 4.60606 15.4682 4.0832C14.8903 3.56033 14.1343 3.29926 13.2 3.3C12.595 3.3 12.045 3.4375 11.55 3.7125C11.055 3.9875 10.6608 4.38166 10.3675 4.895C10.2575 5.07833 10.2483 5.27083 10.34 5.4725C10.4317 5.67416 10.5875 5.82083 10.8075 5.9125C11.0092 6.00416 11.2064 6.01333 11.3993 5.94C11.5922 5.86666 11.7524 5.73833 11.88 5.555C12.045 5.31666 12.2375 5.1381 12.4575 5.0193C12.6775 4.9005 12.925 4.84073 13.2 4.84C13.64 4.84 13.9975 4.96393 14.2725 5.2118C14.5475 5.45966 14.685 5.79406 14.685 6.215C14.685 6.47166 14.6117 6.71476 14.465 6.9443C14.3183 7.17383 14.0617 7.4624 13.695 7.81C13.1633 8.26833 12.8242 8.62143 12.6775 8.86929C12.5308 9.11716 12.4392 9.47906 12.4025 9.95499C12.3842 10.175 12.4531 10.3675 12.6093 10.5325C12.7655 10.6975 12.9624 10.78 13.2 10.78ZM6.6 17.6C5.995 17.6 5.47727 17.3848 5.0468 16.9543C4.61633 16.5238 4.40073 16.0057 4.4 15.4V2.2C4.4 1.595 4.6156 1.07727 5.0468 0.6468C5.478 0.216333 5.99573 0.000733333 6.6 0H19.8C20.405 0 20.9231 0.2156 21.3543 0.6468C21.7855 1.078 22.0007 1.59573 22 2.2V15.4C22 16.005 21.7848 16.5231 21.3543 16.9543C20.9238 17.3855 20.4057 17.6007 19.8 17.6H6.6ZM2.2 22C1.595 22 1.07727 21.7848 0.6468 21.3543C0.216333 20.9238 0.000733333 20.4057 0 19.8V5.5C0 5.18833 0.1056 4.92726 0.3168 4.7168C0.528 4.50633 0.789067 4.40073 1.1 4.4C1.41093 4.39926 1.67237 4.50486 1.8843 4.7168C2.09623 4.92873 2.20147 5.1898 2.2 5.5V19.8H16.5C16.8117 19.8 17.0731 19.9056 17.2843 20.1168C17.4955 20.328 17.6007 20.5891 17.6 20.9C17.5993 21.2109 17.4937 21.4724 17.2832 21.6843C17.0727 21.8962 16.8117 22.0015 16.5 22H2.2Z" fill="#878787"/>
</svg>
