<svg width="22" height="22" viewBox="0 0 22 22" fill="none" xmlns="http://www.w3.org/2000/svg">
<path fill-rule="evenodd" clip-rule="evenodd" d="M3.3 0C2.42479 0 1.58542 0.347678 0.966548 0.966548C0.347678 1.58542 0 2.42479 0 3.3V18.7C0 19.5752 0.347678 20.4146 0.966548 21.0335C1.58542 21.6523 2.42479 22 3.3 22H13.2V16.5C13.2 15.6248 13.5477 14.7854 14.1665 14.1665C14.7854 13.5477 15.6248 13.2 16.5 13.2H22V3.3C22 2.42479 21.6523 1.58542 21.0335 0.966548C20.4146 0.347678 19.5752 0 18.7 0H3.3ZM16.8223 21.0331C16.4269 21.4285 15.9375 21.7169 15.4 21.8713V16.5C15.4 16.2083 15.5159 15.9285 15.7222 15.7222C15.9285 15.5159 16.2083 15.4 16.5 15.4H21.8713C21.7169 15.9375 21.4285 16.4269 21.0331 16.8223L16.8223 21.0331ZM5.5 4.4C5.20826 4.4 4.92847 4.51589 4.72218 4.72218C4.51589 4.92847 4.4 5.20826 4.4 5.5C4.4 5.79174 4.51589 6.07153 4.72218 6.27782C4.92847 6.48411 5.20826 6.6 5.5 6.6H16.5C16.7917 6.6 17.0715 6.48411 17.2778 6.27782C17.4841 6.07153 17.6 5.79174 17.6 5.5C17.6 5.20826 17.4841 4.92847 17.2778 4.72218C17.0715 4.51589 16.7917 4.4 16.5 4.4H5.5ZM5.5 8.8C5.20826 8.8 4.92847 8.91589 4.72218 9.12218C4.51589 9.32847 4.4 9.60826 4.4 9.9C4.4 10.1917 4.51589 10.4715 4.72218 10.6778C4.92847 10.8841 5.20826 11 5.5 11H16.5C16.7917 11 17.0715 10.8841 17.2778 10.6778C17.4841 10.4715 17.6 10.1917 17.6 9.9C17.6 9.60826 17.4841 9.32847 17.2778 9.12218C17.0715 8.91589 16.7917 8.8 16.5 8.8H5.5ZM5.5 13.2C5.20826 13.2 4.92847 13.3159 4.72218 13.5222C4.51589 13.7285 4.4 14.0083 4.4 14.3C4.4 14.5917 4.51589 14.8715 4.72218 15.0778C4.92847 15.2841 5.20826 15.4 5.5 15.4H9.9C10.1917 15.4 10.4715 15.2841 10.6778 15.0778C10.8841 14.8715 11 14.5917 11 14.3C11 14.0083 10.8841 13.7285 10.6778 13.5222C10.4715 13.3159 10.1917 13.2 9.9 13.2H5.5Z" fill="#878787"/>
</svg>
